<svg xmlns="http://www.w3.org/2000/svg" viewBox="0 0 1581 443" role="img" aria-labelledby="title"><title id="title">Dialekta</title><defs><linearGradient id="g" x1="0" x2="1" y1="0" y2="1"><stop stop-color="#003E5A"/><stop offset="0.72" stop-color="#005A67"/><stop offset="1" stop-color="#00D6D4"/></linearGradient></defs><rect width="1581" height="443" rx="86" fill="url(#g)"/><g fill="#00D6D4" transform="translate(48 112)"><rect x="0" y="106" width="16" height="16" rx="4"/><rect x="25" y="86" width="16" height="56" rx="4"/><rect x="50" y="64" width="16" height="100" rx="4"/><rect x="75" y="80" width="16" height="68" rx="4"/><rect x="100" y="85" width="16" height="58" rx="4"/><rect x="125" y="70" width="16" height="88" rx="4"/><rect x="150" y="49" width="16" height="130" rx="4"/><rect x="175" y="80" width="16" height="68" rx="4"/><rect x="200" y="100" width="16" height="30" rx="4"/><rect x="225" y="107" width="16" height="16" rx="4"/></g><text x="130" y="354" fill="#fff" font-family="Poppins, Arial, sans-serif" font-size="342" font-weight="800" letter-spacing="-7">Dialekta</text><circle cx="402" cy="109" r="25" fill="#00D6D4"/></svg>