<svg xmlns="http://www.w3.org/2000/svg" viewBox="0 0 1536 658"><defs><radialGradient id="bg" cx="77%" cy="50%" r="70%"><stop stop-color="#003E5A"/><stop offset=".38" stop-color="#002B46"/><stop offset="1" stop-color="#00182A"/></radialGradient><filter id="soft"><feGaussianBlur stdDeviation="5" result="b"/><feMerge><feMergeNode in="b"/><feMergeNode in="SourceGraphic"/></feMerge></filter><filter id="blur"><feGaussianBlur stdDeviation="22"/></filter></defs><rect width="1536" height="658" fill="url(#bg)"/><g filter="url(#blur)" fill="#00D6D4" opacity=".34"><ellipse cx="1165" cy="492" rx="300" ry="86"/><circle cx="1164" cy="292" r="135"/></g><g fill="none" stroke="#00D6D4" stroke-width="2" filter="url(#soft)"><ellipse cx="1165" cy="492" rx="248" ry="50" opacity=".56"/><circle cx="1164" cy="292" r="88" fill="#002B46" fill-opacity=".38"/><circle cx="1164" cy="292" r="130" opacity=".26"/><path d="M1128 246c0-38 31-66 76-66s76 28 76 66c0 30-17 48-45 66-22 14-34 30-34 60M1190 416h34" stroke-width="4"/><rect x="900" y="210" width="230" height="96" rx="20" fill="#002B46" fill-opacity=".44"/><rect x="1242" y="390" width="250" height="104" rx="20" fill="#002B46" fill-opacity=".44"/><rect x="1318" y="124" width="170" height="92" rx="20" fill="#002B46" fill-opacity=".44"/><path d="M944 250h146M944 274h96M1284 434h156M1284 459h118M1358 166h88" opacity=".55"/><path d="M1130 258h74M1248 390l-55-76M1318 170l-72 64" opacity=".48"/><path d="M1356 438l24 24 48-56"/></g><g fill="#00D6D4" filter="url(#soft)"><circle cx="1165" cy="492" r="6"/><circle cx="1130" cy="258" r="5"/><circle cx="1248" cy="390" r="5"/><circle cx="1318" cy="170" r="5"/><circle cx="920" cy="306" r="4"/><circle cx="1470" cy="330" r="4"/></g></svg>