<svg xmlns="http://www.w3.org/2000/svg" viewBox="0 0 1536 658"><defs><radialGradient id="r" cx="75%" cy="45%" r="55%"><stop stop-color="#00D6D4" stop-opacity=".24"/><stop offset=".45" stop-color="#003E5A" stop-opacity=".2"/><stop offset="1" stop-color="#001D2E"/></radialGradient><filter id="glow"><feGaussianBlur stdDeviation="4" result="b"/><feMerge><feMergeNode in="b"/><feMergeNode in="SourceGraphic"/></feMerge></filter></defs><rect width="1536" height="658" fill="#001D2E"/><rect width="1536" height="658" fill="url(#r)"/><g transform="translate(850 135)" fill="none" stroke="#00D6D4" stroke-width="2" filter="url(#glow)" opacity=".9"><circle cx="210" cy="190" r="74"/><circle cx="210" cy="190" r="118" opacity=".34"/><path d="M210 190 55 80M210 190 382 85M210 190 430 286M210 190 92 326" opacity=".58"/><rect x="0" y="30" width="122" height="92" rx="18"/><rect x="320" y="35" width="132" height="94" rx="18"/><rect x="376" y="238" width="138" height="98" rx="18"/><rect x="34" y="286" width="142" height="94" rx="18"/><path d="M56 86h30m300-5h42m21 206h34M78 332h58"/><path d="M58 63v38m-19-19h38M386 76c22 16 22 43 0 59m48-26a34 34 0 0 0-17-29m-315 231h40m-40 22h70"/></g><g fill="#00D6D4" filter="url(#glow)"><circle cx="1060" cy="325" r="6"/><circle cx="905" cy="215" r="5"/><circle cx="1232" cy="220" r="5"/><circle cx="1280" cy="421" r="5"/><circle cx="942" cy="461" r="5"/></g></svg>