<svg xmlns="http://www.w3.org/2000/svg" viewBox="0 0 1536 658"><defs><radialGradient id="bg" cx="77%" cy="53%" r="70%"><stop stop-color="#003E5A"/><stop offset=".38" stop-color="#002B46"/><stop offset="1" stop-color="#00182A"/></radialGradient><filter id="soft"><feGaussianBlur stdDeviation="5" result="b"/><feMerge><feMergeNode in="b"/><feMergeNode in="SourceGraphic"/></feMerge></filter><filter id="blur"><feGaussianBlur stdDeviation="20"/></filter></defs><rect width="1536" height="658" fill="url(#bg)"/><g filter="url(#blur)" opacity=".34" fill="#00D6D4"><ellipse cx="1162" cy="505" rx="300" ry="82"/><circle cx="1120" cy="325" r="125"/></g><g fill="none" stroke="#00D6D4" stroke-width="2" filter="url(#soft)"><ellipse cx="1148" cy="506" rx="245" ry="48" opacity=".54"/><path d="M915 458h515l-70 55H845z" opacity=".62"/><path d="M980 160h320c40 0 72 32 72 72v205H910V232c0-40 32-72 70-72z" fill="#002B46" fill-opacity=".42"/><rect x="970" y="210" width="152" height="40" rx="10"/><rect x="970" y="282" width="310" height="28" rx="8" opacity=".58"/><rect x="970" y="333" width="82" height="56" rx="12"/><rect x="1083" y="333" width="82" height="56" rx="12"/><rect x="1196" y="333" width="82" height="56" rx="12"/><rect x="1288" y="82" width="138" height="100" rx="18" fill="#002B46" fill-opacity=".44"/><rect x="835" y="256" width="132" height="92" rx="18" fill="#002B46" fill-opacity=".44"/><path d="M1338 110c0-22 17-39 39-39s39 17 39 39c0 17-9 28-21 38-10 8-16 17-16 32M1368 194h28M890 303h54m-27-27v54"/><path d="M1288 132 1220 208M967 302 910 302M1180 333 1320 475" opacity=".55"/></g><g fill="#00D6D4" filter="url(#soft)"><circle cx="1148" cy="506" r="6"/><circle cx="970" cy="302" r="5"/><circle cx="1288" cy="132" r="5"/><circle cx="1336" cy="456" r="5"/><circle cx="905" cy="430" r="4"/><circle cx="1400" cy="254" r="4"/></g></svg>