<svg xmlns="http://www.w3.org/2000/svg" viewBox="0 0 1536 658"><defs><radialGradient id="r" cx="76%" cy="49%" r="58%"><stop stop-color="#00D6D4" stop-opacity=".23"/><stop offset=".48" stop-color="#003E5A" stop-opacity=".18"/><stop offset="1" stop-color="#001D2E"/></radialGradient><filter id="glow"><feGaussianBlur stdDeviation="4" result="b"/><feMerge><feMergeNode in="b"/><feMergeNode in="SourceGraphic"/></feMerge></filter></defs><rect width="1536" height="658" fill="#001D2E"/><rect width="1536" height="658" fill="url(#r)"/><g transform="translate(850 105)" fill="none" stroke="#00D6D4" stroke-width="2" filter="url(#glow)"><path d="M262 78c0-42 34-72 82-72s82 30 82 72c0 34-19 52-49 72-22 15-34 30-34 60"/><path d="M334 256h36"/><rect x="20" y="164" width="230" height="96" rx="20"/><rect x="312" y="300" width="250" height="104" rx="20"/><rect x="435" y="88" width="170" height="88" rx="20"/><path d="M62 204h146M62 228h96M354 343h156M354 368h118M474 130h88" opacity=".52"/><path d="M250 212h88M438 176l-70 124M520 176l-30 124" opacity=".42"/></g><g fill="#00D6D4" filter="url(#glow)"><circle cx="1100" cy="316" r="5"/><circle cx="1285" cy="210" r="5"/><circle cx="1370" cy="335" r="5"/><circle cx="985" cy="300" r="4"/></g></svg>