<svg xmlns="http://www.w3.org/2000/svg" viewBox="0 0 1536 658"><defs><radialGradient id="r" cx="77%" cy="55%" r="58%"><stop stop-color="#00D6D4" stop-opacity=".23"/><stop offset=".48" stop-color="#003E5A" stop-opacity=".18"/><stop offset="1" stop-color="#001D2E"/></radialGradient><filter id="glow"><feGaussianBlur stdDeviation="4" result="b"/><feMerge><feMergeNode in="b"/><feMergeNode in="SourceGraphic"/></feMerge></filter></defs><rect width="1536" height="658" fill="#001D2E"/><rect width="1536" height="658" fill="url(#r)"/><g transform="translate(835 130)" fill="none" stroke="#00D6D4" stroke-width="2" filter="url(#glow)"><path d="M120 330h470l-55 46H72z" opacity=".62"/><path d="M156 92h330c30 0 54 24 54 54v172H102V146c0-30 24-54 54-54z" opacity=".72"/><rect x="145" y="130" width="126" height="34" rx="10" opacity=".66"/><rect x="145" y="188" width="260" height="26" rx="8" opacity=".38"/><rect x="145" y="236" width="70" height="44" rx="10"/><rect x="238" y="236" width="70" height="44" rx="10"/><rect x="331" y="236" width="70" height="44" rx="10"/><path d="M478 80c0-34 26-60 59-60s59 26 59 60c0 25-13 41-31 56-15 13-24 25-24 49"/><path d="M518 218h54M530 246h30"/><path d="M538 185 426 202M538 185 468 124M538 185 620 254" opacity=".45"/></g><g fill="#00D6D4" filter="url(#glow)"><circle cx="1055" cy="312" r="5"/><circle cx="1296" cy="386" r="5"/><circle cx="1260" cy="150" r="5"/><circle cx="940" cy="332" r="4"/><circle cx="1180" cy="255" r="4"/></g></svg>