<svg xmlns="http://www.w3.org/2000/svg" viewBox="0 0 1536 658"><defs><radialGradient id="bg" cx="78%" cy="50%" r="70%"><stop stop-color="#003E5A"/><stop offset=".38" stop-color="#002B46"/><stop offset="1" stop-color="#00182A"/></radialGradient><filter id="soft"><feGaussianBlur stdDeviation="5" result="b"/><feMerge><feMergeNode in="b"/><feMergeNode in="SourceGraphic"/></feMerge></filter><filter id="blur"><feGaussianBlur stdDeviation="22"/></filter></defs><rect width="1536" height="658" fill="url(#bg)"/><g filter="url(#blur)" fill="#00D6D4" opacity=".34"><ellipse cx="1172" cy="488" rx="305" ry="86"/><circle cx="1200" cy="300" r="130"/></g><g fill="none" stroke="#00D6D4" stroke-width="2" filter="url(#soft)"><ellipse cx="1172" cy="488" rx="255" ry="50" opacity=".55"/><ellipse cx="1172" cy="488" rx="158" ry="29" opacity=".72"/><rect x="925" y="135" width="160" height="220" rx="20" fill="#002B46" fill-opacity=".44"/><rect x="1190" y="90" width="245" height="136" rx="20" fill="#002B46" fill-opacity=".44"/><rect x="1240" y="320" width="225" height="128" rx="20" fill="#002B46" fill-opacity=".44"/><rect x="850" y="402" width="220" height="90" rx="20" fill="#002B46" fill-opacity=".44"/><path d="M970 185h78M970 230h78M970 275h78M970 320h78M1235 136h155M1235 178h110M1285 364h128M1285 405h82M895 445h132" opacity=".55"/><path d="M955 185l13 13 29-34M955 230l13 13 29-34M955 275l13 13 29-34M1085 250h102M1312 226v94M1070 447h170M1435 154h58m-29-29v58M1410 365l28 28-28 28"/><path d="M1172 488 1005 355M1172 488 1312 226M1172 488 1240 384" opacity=".6"/></g><g fill="#00D6D4" filter="url(#soft)"><circle cx="1172" cy="488" r="6"/><circle cx="1085" cy="250" r="5"/><circle cx="1312" cy="226" r="5"/><circle cx="1240" cy="384" r="5"/><circle cx="895" cy="445" r="4"/><circle cx="1465" cy="220" r="4"/></g></svg>