<svg xmlns="http://www.w3.org/2000/svg" viewBox="0 0 1536 658" preserveAspectRatio="xMidYMid slice" role="img" aria-label="Dialekta Hero Illustration"><defs><linearGradient id="bg-home" x1="0" y1="0" x2="1" y2="1"><stop offset="0" stop-color="#001D2E"/><stop offset=".48" stop-color="#003E5A"/><stop offset="1" stop-color="#006D79"/></linearGradient><radialGradient id="halo-home" cx="74%" cy="45%" r="50%"><stop offset="0" stop-color="#00D6D4" stop-opacity=".72"/><stop offset=".34" stop-color="#00D6D4" stop-opacity=".24"/><stop offset="1" stop-color="#001D2E" stop-opacity="0"/></radialGradient><linearGradient id="stroke-home" x1="0" y1="0" x2="1" y2="1"><stop offset="0" stop-color="#FFFFFF" stop-opacity=".88"/><stop offset=".42" stop-color="#00D6D4" stop-opacity=".98"/><stop offset="1" stop-color="#009AA5" stop-opacity=".92"/></linearGradient><linearGradient id="panel-home" x1="0" y1="0" x2="1" y2="1"><stop offset="0" stop-color="#FFFFFF" stop-opacity=".22"/><stop offset="1" stop-color="#00D6D4" stop-opacity=".08"/></linearGradient><filter id="glow-home" x="-60%" y="-60%" width="220%" height="220%"><feGaussianBlur stdDeviation="7" result="blur"/><feColorMatrix in="blur" type="matrix" values="0 0 0 0 0 0 0 0 0 .84 0 0 0 0 .83 0 0 0 .7 0"/><feMerge><feMergeNode/><feMergeNode in="SourceGraphic"/></feMerge></filter><filter id="soft-home" x="-40%" y="-40%" width="180%" height="180%"><feDropShadow dx="0" dy="24" stdDeviation="24" flood-color="#001D2E" flood-opacity=".35"/></filter></defs><rect width="1536" height="658" fill="url(#bg-home)"/><rect width="1536" height="658" fill="url(#halo-home)"/><path d="M640 0h896v658H520c130-150 164-376 120-658z" fill="#00D6D4" opacity=".05"/><g opacity=".22" stroke="#00D6D4" stroke-width="1"><path d="M760 0v658"/><path d="M816 0v658"/><path d="M872 0v658"/><path d="M928 0v658"/><path d="M984 0v658"/><path d="M1040 0v658"/><path d="M1096 0v658"/><path d="M1152 0v658"/><path d="M1208 0v658"/><path d="M1264 0v658"/><path d="M1320 0v658"/><path d="M1376 0v658"/><path d="M1432 0v658"/><path d="M1488 0v658"/><path d="M620 86h916"/><path d="M620 164h916"/><path d="M620 242h916"/><path d="M620 320h916"/><path d="M620 398h916"/><path d="M620 476h916"/><path d="M620 554h916"/></g><g transform="translate(720 54)"><g transform="translate(40 6)"><circle cx="374" cy="260" r="206" fill="#00D6D4" opacity=".08"/><circle cx="374" cy="260" r="126" fill="none" stroke="url(#stroke-home)" stroke-width="4" opacity=".65"/><circle cx="374" cy="260" r="68" fill="#003E5A" stroke="url(#stroke-home)" stroke-width="4" filter="url(#soft-home)"/><path d="M340 260c0-28 16-48 45-48 24 0 42 16 42 40 0 31-26 39-26 67" fill="none" stroke="#00D6D4" stroke-width="11" stroke-linecap="round"/><path d="M358 335h70" stroke="#00D6D4" stroke-width="11" stroke-linecap="round" filter="url(#glow-home)"/><g><path d="M152 160L238 86" stroke="url(#stroke-home)" stroke-width="3" opacity=".52" stroke-linecap="round"/><path d="M238 86L362 92" stroke="url(#stroke-home)" stroke-width="3" opacity=".52" stroke-linecap="round"/><path d="M362 92L520 118" stroke="url(#stroke-home)" stroke-width="3" opacity=".52" stroke-linecap="round"/><path d="M520 118L612 220" stroke="url(#stroke-home)" stroke-width="3" opacity=".52" stroke-linecap="round"/><path d="M612 220L560 360" stroke="url(#stroke-home)" stroke-width="3" opacity=".52" stroke-linecap="round"/><path d="M560 360L430 470" stroke="url(#stroke-home)" stroke-width="3" opacity=".52" stroke-linecap="round"/><path d="M430 470L252 442" stroke="url(#stroke-home)" stroke-width="3" opacity=".52" stroke-linecap="round"/><path d="M252 442L140 314" stroke="url(#stroke-home)" stroke-width="3" opacity=".52" stroke-linecap="round"/><path d="M140 314L152 160" stroke="url(#stroke-home)" stroke-width="3" opacity=".52" stroke-linecap="round"/><path d="M362 92L430 470" stroke="url(#stroke-home)" stroke-width="3" opacity=".52" stroke-linecap="round"/><path d="M520 118L704 324" stroke="url(#stroke-home)" stroke-width="3" opacity=".52" stroke-linecap="round"/><path d="M704 324L636 474" stroke="url(#stroke-home)" stroke-width="3" opacity=".52" stroke-linecap="round"/><path d="M636 474L510 540" stroke="url(#stroke-home)" stroke-width="3" opacity=".52" stroke-linecap="round"/><path d="M430 470L510 540" stroke="url(#stroke-home)" stroke-width="3" opacity=".52" stroke-linecap="round"/><path d="M560 360L636 474" stroke="url(#stroke-home)" stroke-width="3" opacity=".52" stroke-linecap="round"/><circle cx="152" cy="160" r="8" fill="#00D6D4" filter="url(#glow-home)"/><circle cx="152" cy="160" r="4" fill="#FFFFFF" opacity=".88"/><circle cx="238" cy="86" r="7" fill="#00D6D4" filter="url(#glow-home)"/><circle cx="238" cy="86" r="3" fill="#FFFFFF" opacity=".88"/><circle cx="362" cy="92" r="9" fill="#00D6D4" filter="url(#glow-home)"/><circle cx="362" cy="92" r="5" fill="#FFFFFF" opacity=".88"/><circle cx="520" cy="118" r="7" fill="#00D6D4" filter="url(#glow-home)"/><circle cx="520" cy="118" r="3" fill="#FFFFFF" opacity=".88"/><circle cx="612" cy="220" r="8" fill="#00D6D4" filter="url(#glow-home)"/><circle cx="612" cy="220" r="4" fill="#FFFFFF" opacity=".88"/><circle cx="560" cy="360" r="7" fill="#00D6D4" filter="url(#glow-home)"/><circle cx="560" cy="360" r="3" fill="#FFFFFF" opacity=".88"/><circle cx="430" cy="470" r="9" fill="#00D6D4" filter="url(#glow-home)"/><circle cx="430" cy="470" r="5" fill="#FFFFFF" opacity=".88"/><circle cx="252" cy="442" r="7" fill="#00D6D4" filter="url(#glow-home)"/><circle cx="252" cy="442" r="3" fill="#FFFFFF" opacity=".88"/><circle cx="140" cy="314" r="8" fill="#00D6D4" filter="url(#glow-home)"/><circle cx="140" cy="314" r="4" fill="#FFFFFF" opacity=".88"/><circle cx="704" cy="324" r="7" fill="#00D6D4" filter="url(#glow-home)"/><circle cx="704" cy="324" r="3" fill="#FFFFFF" opacity=".88"/><circle cx="636" cy="474" r="8" fill="#00D6D4" filter="url(#glow-home)"/><circle cx="636" cy="474" r="4" fill="#FFFFFF" opacity=".88"/><circle cx="510" cy="540" r="7" fill="#00D6D4" filter="url(#glow-home)"/><circle cx="510" cy="540" r="3" fill="#FFFFFF" opacity=".88"/></g></g></g></svg>