<svg xmlns="http://www.w3.org/2000/svg" viewBox="0 0 1536 658" preserveAspectRatio="xMidYMid slice" role="img" aria-label="Dialekta Hero Illustration"><defs><linearGradient id="bg-about" x1="0" y1="0" x2="1" y2="1"><stop offset="0" stop-color="#001D2E"/><stop offset=".48" stop-color="#003E5A"/><stop offset="1" stop-color="#006D79"/></linearGradient><radialGradient id="halo-about" cx="74%" cy="45%" r="50%"><stop offset="0" stop-color="#00D6D4" stop-opacity=".72"/><stop offset=".34" stop-color="#00D6D4" stop-opacity=".24"/><stop offset="1" stop-color="#001D2E" stop-opacity="0"/></radialGradient><linearGradient id="stroke-about" x1="0" y1="0" x2="1" y2="1"><stop offset="0" stop-color="#FFFFFF" stop-opacity=".88"/><stop offset=".42" stop-color="#00D6D4" stop-opacity=".98"/><stop offset="1" stop-color="#009AA5" stop-opacity=".92"/></linearGradient><linearGradient id="panel-about" x1="0" y1="0" x2="1" y2="1"><stop offset="0" stop-color="#FFFFFF" stop-opacity=".22"/><stop offset="1" stop-color="#00D6D4" stop-opacity=".08"/></linearGradient><filter id="glow-about" x="-60%" y="-60%" width="220%" height="220%"><feGaussianBlur stdDeviation="7" result="blur"/><feColorMatrix in="blur" type="matrix" values="0 0 0 0 0 0 0 0 0 .84 0 0 0 0 .83 0 0 0 .7 0"/><feMerge><feMergeNode/><feMergeNode in="SourceGraphic"/></feMerge></filter><filter id="soft-about" x="-40%" y="-40%" width="180%" height="180%"><feDropShadow dx="0" dy="24" stdDeviation="24" flood-color="#001D2E" flood-opacity=".35"/></filter></defs><rect width="1536" height="658" fill="url(#bg-about)"/><rect width="1536" height="658" fill="url(#halo-about)"/><path d="M640 0h896v658H520c130-150 164-376 120-658z" fill="#00D6D4" opacity=".05"/><g opacity=".22" stroke="#00D6D4" stroke-width="1"><path d="M760 0v658"/><path d="M816 0v658"/><path d="M872 0v658"/><path d="M928 0v658"/><path d="M984 0v658"/><path d="M1040 0v658"/><path d="M1096 0v658"/><path d="M1152 0v658"/><path d="M1208 0v658"/><path d="M1264 0v658"/><path d="M1320 0v658"/><path d="M1376 0v658"/><path d="M1432 0v658"/><path d="M1488 0v658"/><path d="M620 86h916"/><path d="M620 164h916"/><path d="M620 242h916"/><path d="M620 320h916"/><path d="M620 398h916"/><path d="M620 476h916"/><path d="M620 554h916"/></g><g transform="translate(720 54)"><g transform="translate(90 66)"><circle cx="310" cy="206" r="108" fill="#00D6D4" opacity=".1" stroke="url(#stroke-about)" stroke-width="4"/><circle cx="520" cy="206" r="108" fill="#00D6D4" opacity=".1" stroke="url(#stroke-about)" stroke-width="4"/><circle cx="310" cy="174" r="42" fill="#003E5A" stroke="#00D6D4" stroke-width="7" filter="url(#glow-about)"/><circle cx="520" cy="174" r="42" fill="#003E5A" stroke="#00D6D4" stroke-width="7" filter="url(#glow-about)"/><path d="M222 306c18-74 94-96 156-58M432 306c18-74 94-96 156-58" fill="none" stroke="url(#stroke-about)" stroke-width="12" stroke-linecap="round"/><circle cx="416" cy="330" r="70" fill="#00D6D4" opacity=".1" stroke="url(#stroke-about)" stroke-width="4"/><path d="M308 420c58 54 154 54 212 0" fill="none" stroke="#00D6D4" stroke-width="10" stroke-linecap="round"/><g><path d="M118 116L206 60" stroke="url(#stroke-about)" stroke-width="3" opacity=".52" stroke-linecap="round"/><path d="M206 60L414 48" stroke="url(#stroke-about)" stroke-width="3" opacity=".52" stroke-linecap="round"/><path d="M414 48L630 72" stroke="url(#stroke-about)" stroke-width="3" opacity=".52" stroke-linecap="round"/><path d="M630 72L724 166" stroke="url(#stroke-about)" stroke-width="3" opacity=".52" stroke-linecap="round"/><path d="M724 166L690 350" stroke="url(#stroke-about)" stroke-width="3" opacity=".52" stroke-linecap="round"/><path d="M690 350L500 482" stroke="url(#stroke-about)" stroke-width="3" opacity=".52" stroke-linecap="round"/><path d="M500 482L240 472" stroke="url(#stroke-about)" stroke-width="3" opacity=".52" stroke-linecap="round"/><path d="M240 472L92 316" stroke="url(#stroke-about)" stroke-width="3" opacity=".52" stroke-linecap="round"/><path d="M92 316L118 116" stroke="url(#stroke-about)" stroke-width="3" opacity=".52" stroke-linecap="round"/><path d="M414 48L500 482" stroke="url(#stroke-about)" stroke-width="3" opacity=".52" stroke-linecap="round"/><path d="M118 116L240 472" stroke="url(#stroke-about)" stroke-width="3" opacity=".52" stroke-linecap="round"/><path d="M724 166L500 482" stroke="url(#stroke-about)" stroke-width="3" opacity=".52" stroke-linecap="round"/><circle cx="118" cy="116" r="7" fill="#00D6D4" filter="url(#glow-about)"/><circle cx="118" cy="116" r="3" fill="#FFFFFF" opacity=".88"/><circle cx="206" cy="60" r="6" fill="#00D6D4" filter="url(#glow-about)"/><circle cx="206" cy="60" r="2" fill="#FFFFFF" opacity=".88"/><circle cx="414" cy="48" r="8" fill="#00D6D4" filter="url(#glow-about)"/><circle cx="414" cy="48" r="4" fill="#FFFFFF" opacity=".88"/><circle cx="630" cy="72" r="6" fill="#00D6D4" filter="url(#glow-about)"/><circle cx="630" cy="72" r="2" fill="#FFFFFF" opacity=".88"/><circle cx="724" cy="166" r="8" fill="#00D6D4" filter="url(#glow-about)"/><circle cx="724" cy="166" r="4" fill="#FFFFFF" opacity=".88"/><circle cx="690" cy="350" r="7" fill="#00D6D4" filter="url(#glow-about)"/><circle cx="690" cy="350" r="3" fill="#FFFFFF" opacity=".88"/><circle cx="500" cy="482" r="8" fill="#00D6D4" filter="url(#glow-about)"/><circle cx="500" cy="482" r="4" fill="#FFFFFF" opacity=".88"/><circle cx="240" cy="472" r="7" fill="#00D6D4" filter="url(#glow-about)"/><circle cx="240" cy="472" r="3" fill="#FFFFFF" opacity=".88"/><circle cx="92" cy="316" r="8" fill="#00D6D4" filter="url(#glow-about)"/><circle cx="92" cy="316" r="4" fill="#FFFFFF" opacity=".88"/></g></g></g></svg>