<svg xmlns="http://www.w3.org/2000/svg" viewBox="0 0 1536 658"><defs><radialGradient id="bg" cx="77%" cy="50%" r="70%"><stop stop-color="#003E5A"/><stop offset=".38" stop-color="#002B46"/><stop offset="1" stop-color="#00182A"/></radialGradient><filter id="soft"><feGaussianBlur stdDeviation="5" result="b"/><feMerge><feMergeNode in="b"/><feMergeNode in="SourceGraphic"/></feMerge></filter><filter id="blur"><feGaussianBlur stdDeviation="22"/></filter></defs><rect width="1536" height="658" fill="url(#bg)"/><g filter="url(#blur)" fill="#00D6D4" opacity=".34"><ellipse cx="1165" cy="486" rx="295" ry="84"/><circle cx="1128" cy="296" r="135"/></g><g fill="none" stroke="#00D6D4" stroke-width="2" filter="url(#soft)"><ellipse cx="1165" cy="486" rx="246" ry="50" opacity=".56"/><circle cx="1128" cy="294" r="88"/><circle cx="1128" cy="294" r="145" opacity=".33"/><circle cx="1128" cy="294" r="30" fill="#00D6D4" fill-opacity=".14"/><path d="M1128 294 940 176M1128 294 1348 170M1128 294 1400 382M1128 294 1010 455" opacity=".62"/><rect x="876" y="128" width="142" height="98" rx="18" fill="#002B46" fill-opacity=".44"/><rect x="1306" y="118" width="164" height="106" rx="18" fill="#002B46" fill-opacity=".44"/><rect x="1355" y="330" width="164" height="108" rx="18" fill="#002B46" fill-opacity=".44"/><rect x="945" y="408" width="172" height="96" rx="18" fill="#002B46" fill-opacity=".44"/><path d="M928 178h54M1350 166h86M1395 382h82M985 455h88" opacity=".55"/><path d="M940 162v40m-20-20h40M1350 154l24 24 48-56M1418 360v50m-25-25h50"/></g><g fill="#00D6D4" filter="url(#soft)"><circle cx="1128" cy="294" r="7"/><circle cx="940" cy="176" r="5"/><circle cx="1348" cy="170" r="5"/><circle cx="1400" cy="382" r="5"/><circle cx="1010" cy="455" r="5"/><circle cx="1290" cy="500" r="4"/></g></svg>