<svg xmlns="http://www.w3.org/2000/svg" viewBox="0 0 1536 658" preserveAspectRatio="xMidYMid slice" role="img" aria-label="Dialekta Hero Illustration"><defs><linearGradient id="bg-helpers" x1="0" y1="0" x2="1" y2="1"><stop offset="0" stop-color="#001D2E"/><stop offset=".48" stop-color="#003E5A"/><stop offset="1" stop-color="#006D79"/></linearGradient><radialGradient id="halo-helpers" cx="74%" cy="45%" r="50%"><stop offset="0" stop-color="#00D6D4" stop-opacity=".72"/><stop offset=".34" stop-color="#00D6D4" stop-opacity=".24"/><stop offset="1" stop-color="#001D2E" stop-opacity="0"/></radialGradient><linearGradient id="stroke-helpers" x1="0" y1="0" x2="1" y2="1"><stop offset="0" stop-color="#FFFFFF" stop-opacity=".88"/><stop offset=".42" stop-color="#00D6D4" stop-opacity=".98"/><stop offset="1" stop-color="#009AA5" stop-opacity=".92"/></linearGradient><linearGradient id="panel-helpers" x1="0" y1="0" x2="1" y2="1"><stop offset="0" stop-color="#FFFFFF" stop-opacity=".22"/><stop offset="1" stop-color="#00D6D4" stop-opacity=".08"/></linearGradient><filter id="glow-helpers" x="-60%" y="-60%" width="220%" height="220%"><feGaussianBlur stdDeviation="7" result="blur"/><feColorMatrix in="blur" type="matrix" values="0 0 0 0 0 0 0 0 0 .84 0 0 0 0 .83 0 0 0 .7 0"/><feMerge><feMergeNode/><feMergeNode in="SourceGraphic"/></feMerge></filter><filter id="soft-helpers" x="-40%" y="-40%" width="180%" height="180%"><feDropShadow dx="0" dy="24" stdDeviation="24" flood-color="#001D2E" flood-opacity=".35"/></filter></defs><rect width="1536" height="658" fill="url(#bg-helpers)"/><rect width="1536" height="658" fill="url(#halo-helpers)"/><path d="M640 0h896v658H520c130-150 164-376 120-658z" fill="#00D6D4" opacity=".05"/><g opacity=".22" stroke="#00D6D4" stroke-width="1"><path d="M760 0v658"/><path d="M816 0v658"/><path d="M872 0v658"/><path d="M928 0v658"/><path d="M984 0v658"/><path d="M1040 0v658"/><path d="M1096 0v658"/><path d="M1152 0v658"/><path d="M1208 0v658"/><path d="M1264 0v658"/><path d="M1320 0v658"/><path d="M1376 0v658"/><path d="M1432 0v658"/><path d="M1488 0v658"/><path d="M620 86h916"/><path d="M620 164h916"/><path d="M620 242h916"/><path d="M620 320h916"/><path d="M620 398h916"/><path d="M620 476h916"/><path d="M620 554h916"/></g><g transform="translate(720 54)"><g transform="translate(28 62)"><g transform="translate(40 78)" filter="url(#soft-helpers)"><rect width="218" height="122" rx="22" fill="url(#panel-helpers)" stroke="url(#stroke-helpers)" stroke-width="2"/><path d="M26 96H192" stroke="#00D6D4" stroke-width="5" stroke-linecap="round" opacity=".82"/><circle cx="28" cy="28" r="8" fill="#00D6D4" filter="url(#glow-helpers)"/><text x="48" y="35" font-family="Arial, sans-serif" font-size="20" font-weight="700" fill="#fff">Input</text></g><g transform="translate(336 48)" filter="url(#soft-helpers)"><rect width="230" height="122" rx="22" fill="url(#panel-helpers)" stroke="url(#stroke-helpers)" stroke-width="2"/><path d="M26 96H204" stroke="#00D6D4" stroke-width="5" stroke-linecap="round" opacity=".82"/><circle cx="28" cy="28" r="8" fill="#00D6D4" filter="url(#glow-helpers)"/><text x="48" y="35" font-family="Arial, sans-serif" font-size="20" font-weight="700" fill="#fff">Prüfen</text></g><g transform="translate(620 112)" filter="url(#soft-helpers)"><rect width="220" height="122" rx="22" fill="url(#panel-helpers)" stroke="url(#stroke-helpers)" stroke-width="2"/><path d="M26 96H194" stroke="#00D6D4" stroke-width="5" stroke-linecap="round" opacity=".82"/><circle cx="28" cy="28" r="8" fill="#00D6D4" filter="url(#glow-helpers)"/><text x="48" y="35" font-family="Arial, sans-serif" font-size="20" font-weight="700" fill="#fff">Output</text></g><g transform="translate(340 318)" filter="url(#soft-helpers)"><rect width="246" height="122" rx="22" fill="url(#panel-helpers)" stroke="url(#stroke-helpers)" stroke-width="2"/><path d="M26 96H220" stroke="#00D6D4" stroke-width="5" stroke-linecap="round" opacity=".82"/><circle cx="28" cy="28" r="8" fill="#00D6D4" filter="url(#glow-helpers)"/><text x="48" y="35" font-family="Arial, sans-serif" font-size="20" font-weight="700" fill="#fff">Erledigt</text></g><path d="M258 139C300 138 306 110 336 110M566 110c42 0 50 64 88 64M650 232c-8 76-42 98-104 118M340 380c-90 0-176-54-196-180" fill="none" stroke="url(#stroke-helpers)" stroke-width="8" stroke-linecap="round" filter="url(#glow-helpers)"/><circle cx="324" cy="110" r="12" fill="#00D6D4"/><circle cx="650" cy="174" r="12" fill="#00D6D4"/><circle cx="546" cy="350" r="12" fill="#00D6D4"/><g transform="translate(292 176)"><circle cx="170" cy="92" r="88" fill="#00D6D4" opacity=".11" stroke="url(#stroke-helpers)" stroke-width="4"/><path d="M132 92h136M200 46v136M152 62l96 96M248 62l-96 96" stroke="#00D6D4" stroke-width="8" stroke-linecap="round" opacity=".9"/></g></g></g></svg>