<svg xmlns="http://www.w3.org/2000/svg" viewBox="0 0 1536 658"><defs><radialGradient id="bg" cx="78%" cy="50%" r="70%"><stop stop-color="#003E5A"/><stop offset=".38" stop-color="#002B46"/><stop offset="1" stop-color="#00182A"/></radialGradient><filter id="soft"><feGaussianBlur stdDeviation="5" result="b"/><feMerge><feMergeNode in="b"/><feMergeNode in="SourceGraphic"/></feMerge></filter><filter id="blur"><feGaussianBlur stdDeviation="22"/></filter></defs><rect width="1536" height="658" fill="url(#bg)"/><g filter="url(#blur)" fill="#00D6D4" opacity=".34"><ellipse cx="1170" cy="470" rx="300" ry="92"/><circle cx="1190" cy="282" r="135"/></g><g opacity=".15" stroke="#00D6D4"><path d="M760 455c260-80 520-74 740-18M815 510c205-58 460-54 650-10M790 190c170-70 440-78 690 20"/></g><g fill="none" stroke="#00D6D4" stroke-width="2" filter="url(#soft)"><ellipse cx="1168" cy="470" rx="245" ry="52" opacity=".55"/><ellipse cx="1168" cy="470" rx="150" ry="30" opacity=".72"/><circle cx="1168" cy="300" r="78" fill="#002B46" fill-opacity=".5"/><circle cx="1168" cy="300" r="118" opacity=".25"/><path d="M1168 300v-54M1168 300l-78 90M1168 300l92 88M1168 300l-130-54M1168 300l142-58" opacity=".65"/><rect x="970" y="140" width="134" height="92" rx="18" fill="#002B46" fill-opacity=".42"/><rect x="1274" y="137" width="142" height="94" rx="18" fill="#002B46" fill-opacity=".42"/><rect x="912" y="372" width="162" height="98" rx="18" fill="#002B46" fill-opacity=".42"/><rect x="1250" y="360" width="172" height="105" rx="18" fill="#002B46" fill-opacity=".42"/><path d="M1008 174v42m-21-21h42M1308 172c25 18 25 51 0 70m46-35a40 40 0 0 0-20-35M960 416h64m-64 24h96M1292 400h40m24 0h40m-104 28h104"/><path d="M1128 300h80m-40-40v80" stroke-width="4"/></g><g fill="#00D6D4" filter="url(#soft)"><circle cx="1168" cy="300" r="8"/><circle cx="1037" cy="232" r="5"/><circle cx="1310" cy="242" r="5"/><circle cx="1090" cy="390" r="5"/><circle cx="1260" cy="388" r="5"/><circle cx="968" cy="520" r="4"/><circle cx="1410" cy="515" r="4"/></g></svg>