<svg xmlns="http://www.w3.org/2000/svg" viewBox="0 0 1536 658"><defs><radialGradient id="bg" cx="77%" cy="51%" r="70%"><stop stop-color="#003E5A"/><stop offset=".38" stop-color="#002B46"/><stop offset="1" stop-color="#00182A"/></radialGradient><filter id="soft"><feGaussianBlur stdDeviation="5" result="b"/><feMerge><feMergeNode in="b"/><feMergeNode in="SourceGraphic"/></feMerge></filter><filter id="blur"><feGaussianBlur stdDeviation="22"/></filter></defs><rect width="1536" height="658" fill="url(#bg)"/><g filter="url(#blur)" fill="#00D6D4" opacity=".32"><ellipse cx="1165" cy="486" rx="295" ry="84"/><circle cx="1165" cy="302" r="130"/></g><g fill="none" stroke="#00D6D4" stroke-width="2" filter="url(#soft)"><ellipse cx="1165" cy="486" rx="246" ry="50" opacity=".56"/><circle cx="1048" cy="304" r="82"/><circle cx="1285" cy="304" r="82"/><path d="M1130 304h74M1048 222c68 22 106 50 118 82-12 32-50 60-118 82M1285 222c-68 22-106 50-118 82 12 32 50 60 118 82" opacity=".55"/><circle cx="1048" cy="278" r="25"/><path d="M998 344c20-39 80-39 100 0"/><circle cx="1285" cy="278" r="25"/><path d="M1235 344c20-39 80-39 100 0"/><rect x="900" y="108" width="132" height="88" rx="18" fill="#002B46" fill-opacity=".44"/><rect x="1325" y="106" width="132" height="88" rx="18" fill="#002B46" fill-opacity=".44"/><rect x="1215" y="425" width="158" height="90" rx="18" fill="#002B46" fill-opacity=".44"/><path d="M1032 152h82M1325 150h76M1215 470h110" opacity=".5"/><path d="M946 142a22 22 0 0 1 40 0m-56 32c18-28 72-28 90 0M1350 142l22 22 46-54M1248 468l22 22 44-54"/></g><g fill="#00D6D4" filter="url(#soft)"><circle cx="1166" cy="304" r="7"/><circle cx="1048" cy="386" r="5"/><circle cx="1285" cy="386" r="5"/><circle cx="968" cy="196" r="5"/><circle cx="1378" cy="194" r="5"/><circle cx="1296" cy="515" r="4"/></g></svg>