<svg xmlns="http://www.w3.org/2000/svg" viewBox="0 0 1536 658"><defs><radialGradient id="r" cx="76%" cy="51%" r="58%"><stop stop-color="#00D6D4" stop-opacity=".22"/><stop offset=".48" stop-color="#003E5A" stop-opacity=".18"/><stop offset="1" stop-color="#001D2E"/></radialGradient><filter id="glow"><feGaussianBlur stdDeviation="4" result="b"/><feMerge><feMergeNode in="b"/><feMergeNode in="SourceGraphic"/></feMerge></filter></defs><rect width="1536" height="658" fill="#001D2E"/><rect width="1536" height="658" fill="url(#r)"/><g transform="translate(835 120)" fill="none" stroke="#00D6D4" stroke-width="2" filter="url(#glow)"><circle cx="170" cy="220" r="86"/><circle cx="440" cy="220" r="86"/><path d="M256 220h98M170 134c72 24 115 53 135 86-20 33-63 62-135 86M440 134c-72 24-115 53-135 86 20 33 63 62 135 86" opacity=".5"/><circle cx="170" cy="194" r="25"/><path d="M120 262c20-38 80-38 100 0"/><circle cx="440" cy="194" r="25"/><path d="M390 262c20-38 80-38 100 0"/><rect x="54" y="40" width="112" height="78" rx="18"/><rect x="430" y="350" width="124" height="84" rx="18"/><rect x="550" y="104" width="118" height="84" rx="18"/><path d="M166 78h118M430 392H300M550 146H504" opacity=".46"/></g></svg>