<svg xmlns="http://www.w3.org/2000/svg" viewBox="0 0 1536 658"><defs><radialGradient id="r" cx="76%" cy="48%" r="56%"><stop stop-color="#00D6D4" stop-opacity=".24"/><stop offset=".5" stop-color="#003E5A" stop-opacity=".17"/><stop offset="1" stop-color="#001D2E"/></radialGradient><filter id="glow"><feGaussianBlur stdDeviation="4" result="b"/><feMerge><feMergeNode in="b"/><feMergeNode in="SourceGraphic"/></feMerge></filter></defs><rect width="1536" height="658" fill="#001D2E"/><rect width="1536" height="658" fill="url(#r)"/><g transform="translate(840 112)" fill="none" stroke="#00D6D4" stroke-width="2" filter="url(#glow)"><circle cx="250" cy="214" r="92"/><circle cx="250" cy="214" r="150" opacity=".34"/><circle cx="250" cy="214" r="22" fill="#00D6D4" fill-opacity=".18"/><path d="M250 214 75 82M250 214 474 92M250 214 536 304M250 214 138 390" opacity=".58"/><rect x="20" y="35" width="136" height="94" rx="18"/><rect x="430" y="42" width="160" height="104" rx="18"/><rect x="472" y="254" width="170" height="104" rx="18"/><rect x="65" y="346" width="170" height="94" rx="18"/><path d="M54 82h66M464 86h86M506 304h92M99 390h92" opacity=".56"/><path d="M85 75v38m-19-19h38M508 78l22 22 42-50M530 286v48m-24-24h48"/></g></svg>