<svg xmlns="http://www.w3.org/2000/svg" viewBox="0 0 1536 658"><defs><radialGradient id="bg" cx="78%" cy="48%" r="68%"><stop stop-color="#003E5A"/><stop offset=".34" stop-color="#002B46"/><stop offset="1" stop-color="#00182A"/></radialGradient><radialGradient id="glow" cx="76%" cy="56%" r="38%"><stop stop-color="#00D6D4" stop-opacity=".42"/><stop offset=".48" stop-color="#00D6D4" stop-opacity=".12"/><stop offset="1" stop-color="#00D6D4" stop-opacity="0"/></radialGradient><filter id="soft"><feGaussianBlur stdDeviation="5" result="b"/><feMerge><feMergeNode in="b"/><feMergeNode in="SourceGraphic"/></feMerge></filter><filter id="blur"><feGaussianBlur stdDeviation="18"/></filter></defs><rect width="1536" height="658" fill="url(#bg)"/><rect width="1536" height="658" fill="url(#glow)"/><g opacity=".16" stroke="#00D6D4"><path d="M750 470c220-90 500-95 760-40M805 510c170-70 470-72 680-22M900 190c150-70 390-58 580 36"/><path d="M760 160h720M760 230h720M760 300h720M760 370h720" opacity=".28"/></g><g filter="url(#blur)" opacity=".6" fill="#00D6D4"><ellipse cx="1168" cy="502" rx="250" ry="72"/><circle cx="1204" cy="242" r="145"/></g><g fill="none" stroke="#00D6D4" stroke-width="2" filter="url(#soft)"><ellipse cx="1170" cy="505" rx="238" ry="50" opacity=".56"/><ellipse cx="1170" cy="505" rx="165" ry="31" opacity=".72"/><ellipse cx="1170" cy="505" rx="92" ry="17" opacity=".9"/><rect x="1058" y="62" width="205" height="420" rx="42" fill="#001F35" fill-opacity=".58" stroke-width="2.5"/><rect x="1080" y="86" width="161" height="360" rx="28" opacity=".45"/><path d="M1124 92h72" opacity=".5"/><circle cx="1160" cy="250" r="92" opacity=".36"/><circle cx="1160" cy="250" r="62" opacity=".48"/><path d="M1129 204c19 63 60 104 124 125l26-38c6-9 2-19-8-22l-45-14c-9-3-18 0-23 8l-10 15c-25-14-46-35-60-60l15-10c8-5 11-14 8-23l-14-45c-3-10-13-14-22-8l-38 26c8 24 23 40 47 46z" stroke-width="4"/><path d="M1110 377c16-18 38-18 54 0m31 0c16-18 38-18 54 0M1120 410h18m35 0h18m35 0h18"/><rect x="888" y="100" width="130" height="90" rx="17" fill="#002B46" fill-opacity=".42"/><rect x="840" y="268" width="170" height="98" rx="18" fill="#002B46" fill-opacity=".42"/><rect x="1317" y="83" width="142" height="90" rx="18" fill="#002B46" fill-opacity=".42"/><rect x="1345" y="271" width="152" height="98" rx="18" fill="#002B46" fill-opacity=".42"/><rect x="1285" y="414" width="150" height="88" rx="18" fill="#002B46" fill-opacity=".42"/><path d="M1018 145h90M1010 315h98M1263 145h54M1263 410h64M1263 458h24" opacity=".45"/><path d="M917 143a38 38 0 0 1 62 0m-45 17a17 17 0 0 1 28 0M873 319c32-38 72-38 104 0m-75-20v44m26-58v70m26-58v44M1360 126h62m-31-31v62M1379 306a38 38 0 0 1 62 0m-49 25h36M1328 440c22-30 54-30 76 0"/></g><g fill="#00D6D4" filter="url(#soft)"><circle cx="905" cy="434" r="4"/><circle cx="984" cy="230" r="4"/><circle cx="1051" cy="155" r="5"/><circle cx="1270" cy="248" r="5"/><circle cx="1325" cy="196" r="4"/><circle cx="1440" cy="230" r="4"/><circle cx="1478" cy="392" r="5"/><circle cx="1350" cy="538" r="4"/><circle cx="1168" cy="506" r="6"/></g><g opacity=".55" stroke="#00D6D4"><path d="M1018 145 1058 188M1010 315 1058 305M1263 145 1317 128M1263 410 1285 440M1263 458 1285 458M925 366 1035 432M1421 369 1285 414"/></g></svg>