<svg xmlns="http://www.w3.org/2000/svg" viewBox="0 0 1536 658" preserveAspectRatio="xMidYMid slice" role="img" aria-label="Dialekta Hero Illustration"><defs><linearGradient id="bg-school" x1="0" y1="0" x2="1" y2="1"><stop offset="0" stop-color="#001D2E"/><stop offset=".48" stop-color="#003E5A"/><stop offset="1" stop-color="#006D79"/></linearGradient><radialGradient id="halo-school" cx="74%" cy="45%" r="50%"><stop offset="0" stop-color="#00D6D4" stop-opacity=".72"/><stop offset=".34" stop-color="#00D6D4" stop-opacity=".24"/><stop offset="1" stop-color="#001D2E" stop-opacity="0"/></radialGradient><linearGradient id="stroke-school" x1="0" y1="0" x2="1" y2="1"><stop offset="0" stop-color="#FFFFFF" stop-opacity=".88"/><stop offset=".42" stop-color="#00D6D4" stop-opacity=".98"/><stop offset="1" stop-color="#009AA5" stop-opacity=".92"/></linearGradient><linearGradient id="panel-school" x1="0" y1="0" x2="1" y2="1"><stop offset="0" stop-color="#FFFFFF" stop-opacity=".22"/><stop offset="1" stop-color="#00D6D4" stop-opacity=".08"/></linearGradient><filter id="glow-school" x="-60%" y="-60%" width="220%" height="220%"><feGaussianBlur stdDeviation="7" result="blur"/><feColorMatrix in="blur" type="matrix" values="0 0 0 0 0 0 0 0 0 .84 0 0 0 0 .83 0 0 0 .7 0"/><feMerge><feMergeNode/><feMergeNode in="SourceGraphic"/></feMerge></filter><filter id="soft-school" x="-40%" y="-40%" width="180%" height="180%"><feDropShadow dx="0" dy="24" stdDeviation="24" flood-color="#001D2E" flood-opacity=".35"/></filter></defs><rect width="1536" height="658" fill="url(#bg-school)"/><rect width="1536" height="658" fill="url(#halo-school)"/><path d="M640 0h896v658H520c130-150 164-376 120-658z" fill="#00D6D4" opacity=".05"/><g opacity=".22" stroke="#00D6D4" stroke-width="1"><path d="M760 0v658"/><path d="M816 0v658"/><path d="M872 0v658"/><path d="M928 0v658"/><path d="M984 0v658"/><path d="M1040 0v658"/><path d="M1096 0v658"/><path d="M1152 0v658"/><path d="M1208 0v658"/><path d="M1264 0v658"/><path d="M1320 0v658"/><path d="M1376 0v658"/><path d="M1432 0v658"/><path d="M1488 0v658"/><path d="M620 86h916"/><path d="M620 164h916"/><path d="M620 242h916"/><path d="M620 320h916"/><path d="M620 398h916"/><path d="M620 476h916"/><path d="M620 554h916"/></g><g transform="translate(720 54)"><g transform="translate(62 38)"><rect x="126" y="164" width="480" height="290" rx="32" fill="#003E5A" stroke="url(#stroke-school)" stroke-width="4" filter="url(#soft-school)"/><rect x="162" y="204" width="408" height="202" rx="22" fill="#00D6D4" opacity=".1" stroke="#00D6D4" stroke-width="2"/><path d="M94 472h568" stroke="url(#stroke-school)" stroke-width="18" stroke-linecap="round"/><path d="M258 278h232M258 326h166" stroke="#00D6D4" stroke-width="12" stroke-linecap="round" filter="url(#glow-school)"/><path d="M378 110l168 72-168 72-168-72z" fill="#003E5A" stroke="url(#stroke-school)" stroke-width="4"/><path d="M546 182v88" stroke="#00D6D4" stroke-width="8" stroke-linecap="round"/><g transform="translate(484 78)" filter="url(#soft-school)"><rect width="180" height="92" rx="22" fill="url(#panel-school)" stroke="url(#stroke-school)" stroke-width="2"/><path d="M26 66H154" stroke="#00D6D4" stroke-width="5" stroke-linecap="round" opacity=".82"/><circle cx="28" cy="28" r="8" fill="#00D6D4" filter="url(#glow-school)"/><text x="48" y="35" font-family="Arial, sans-serif" font-size="20" font-weight="700" fill="#fff">Praxis</text></g><g transform="translate(34 90)" filter="url(#soft-school)"><rect width="170" height="84" rx="22" fill="url(#panel-school)" stroke="url(#stroke-school)" stroke-width="2"/><path d="M26 58H144" stroke="#00D6D4" stroke-width="5" stroke-linecap="round" opacity=".82"/><circle cx="28" cy="28" r="8" fill="#00D6D4" filter="url(#glow-school)"/><text x="48" y="35" font-family="Arial, sans-serif" font-size="20" font-weight="700" fill="#fff">Team</text></g></g></g></svg>