<svg xmlns="http://www.w3.org/2000/svg" viewBox="0 0 1536 658"><defs><radialGradient id="r" cx="76%" cy="46%" r="58%"><stop stop-color="#00D6D4" stop-opacity=".22"/><stop offset=".48" stop-color="#003E5A" stop-opacity=".18"/><stop offset="1" stop-color="#001D2E"/></radialGradient><filter id="glow"><feGaussianBlur stdDeviation="4" result="b"/><feMerge><feMergeNode in="b"/><feMergeNode in="SourceGraphic"/></feMerge></filter></defs><rect width="1536" height="658" fill="#001D2E"/><rect width="1536" height="658" fill="url(#r)"/><g transform="translate(820 105)" fill="none" stroke="#00D6D4" stroke-width="2" filter="url(#glow)"><rect x="70" y="60" width="160" height="210" rx="18"/><rect x="315" y="20" width="240" height="132" rx="18"/><rect x="375" y="250" width="212" height="124" rx="18"/><rect x="5" y="332" width="220" height="76" rx="18"/><path d="M102 108h82M102 151h82M102 194h82M102 237h82M348 66h166M348 108h112M410 292h128M410 334h86M228 166h86M435 152v98M225 370h150" opacity=".5"/><path d="M92 109l13 13 26-31M92 151l13 13 26-31M92 194l13 13 26-31"/><path d="M555 86h56m-28-28v56M470 250l24 24-24 24"/></g><g fill="#00D6D4" filter="url(#glow)"><circle cx="1050" cy="271" r="5"/><circle cx="1254" cy="257" r="5"/><circle cx="1194" cy="355" r="5"/><circle cx="910" cy="475" r="5"/><circle cx="1375" cy="188" r="4"/></g></svg>